<svg xmlns="http://www.w3.org/2000/svg" xmlns:xlink="http://www.w3.org/1999/xlink" contentStyleType="text/css" data-diagram-type="DESCRIPTION" height="588px" preserveAspectRatio="none" style="width:746px;height:588px;background:#F9F9F9;" version="1.1" viewBox="0 0 746 588" width="746px" zoomAndPan="magnify"><defs/><g><rect fill="#F9F9F9" height="588" style="stroke:transparent;stroke-width:1;" width="746" x="0" y="0"/><!--cluster Memory--><g id="cluster_Memory"><path d="M306.5,115.672 L363.7118,115.672 A5.25,5.25 0 0 1 367.2118,119.172 L374.2118,140.7399 L445.5,140.7399 A3.5,3.5 0 0 1 449,144.2399 L449,215.232 A3.5,3.5 0 0 1 445.5,218.732 L306.5,218.732 A3.5,3.5 0 0 1 303,215.232 L303,119.172 A3.5,3.5 0 0 1 306.5,115.672 " fill="#90EE90" style="stroke:#393939;stroke-width:1;"/><line style="stroke:#393939;stroke-width:1;" x1="303" x2="374.2118" y1="140.7399" y2="140.7399"/><text fill="#000000" font-family="sans-serif" font-size="14" font-weight="bold" lengthAdjust="spacing" textLength="58.2118" x="307" y="132.6379">Memory</text></g><!--cluster UI--><g id="cluster_UI"><path d="M47.5,250.732 L62.5299,250.732 A5.25,5.25 0 0 1 66.0299,254.232 L73.0299,275.7999 L380.5,275.7999 A3.5,3.5 0 0 1 384,279.2999 L384,475.372 A3.5,3.5 0 0 1 380.5,478.872 L47.5,478.872 A3.5,3.5 0 0 1 44,475.372 L44,254.232 A3.5,3.5 0 0 1 47.5,250.732 " fill="#ADD8E6" style="stroke:#393939;stroke-width:1;"/><line style="stroke:#393939;stroke-width:1;" x1="44" x2="73.0299" y1="275.7999" y2="275.7999"/><text fill="#000000" font-family="sans-serif" font-size="14" font-weight="bold" lengthAdjust="spacing" textLength="16.0299" x="48" y="267.6979">UI</text></g><!--cluster Logic--><g id="cluster_Logic"><path d="M9.5,6.602 L45.3339,6.602 A5.25,5.25 0 0 1 48.8339,10.102 L55.8339,31.6699 L275.5,31.6699 A3.5,3.5 0 0 1 279,35.1699 L279,215.232 A3.5,3.5 0 0 1 275.5,218.732 L9.5,218.732 A3.5,3.5 0 0 1 6,215.232 L6,10.102 A3.5,3.5 0 0 1 9.5,6.602 " fill="#FF7F50" style="stroke:#393939;stroke-width:1;"/><line style="stroke:#393939;stroke-width:1;" x1="6" x2="55.8339" y1="31.6699" y2="31.6699"/><text fill="#000000" font-family="sans-serif" font-size="14" font-weight="bold" lengthAdjust="spacing" textLength="36.8339" x="10" y="23.5679">Logic</text></g><!--cluster Events--><g id="cluster_Events"><path d="M419.5,367.802 L464.8958,367.802 A5.25,5.25 0 0 1 468.3958,371.302 L475.3958,392.8699 L735.5,392.8699 A3.5,3.5 0 0 1 739,396.3699 L739,467.372 A3.5,3.5 0 0 1 735.5,470.872 L419.5,470.872 A3.5,3.5 0 0 1 416,467.372 L416,371.302 A3.5,3.5 0 0 1 419.5,367.802 " fill="#808080" style="stroke:#393939;stroke-width:1;"/><line style="stroke:#393939;stroke-width:1;" x1="416" x2="475.3958" y1="392.8699" y2="392.8699"/><text fill="#000000" font-family="sans-serif" font-size="14" font-weight="bold" lengthAdjust="spacing" textLength="46.3958" x="420" y="384.7679">Events</text></g><!--entity game.State--><g id="elem_game.State"><rect fill="#F0F8FF" height="49.0679" rx="3.5" ry="3.5" style="stroke:#181818;stroke-width:0.5;" width="114.7457" x="318.63" y="153.672"/><rect fill="#F0F8FF" height="10" style="stroke:#181818;stroke-width:0.5;" width="15" x="413.3757" y="158.672"/><rect fill="#F0F8FF" height="2" style="stroke:#181818;stroke-width:0.5;" width="4" x="411.3757" y="160.672"/><rect fill="#F0F8FF" height="2" style="stroke:#181818;stroke-width:0.5;" width="4" x="411.3757" y="164.672"/><text fill="#000000" font-family="sans-serif" font-size="14" lengthAdjust="spacing" textLength="74.7457" x="333.63" y="188.6379">game.State</text></g><!--entity menu.view--><g id="elem_menu.view"><rect fill="#FFE4C4" height="49.0679" rx="3.5" ry="3.5" style="stroke:#181818;stroke-width:0.5;" width="111.6657" x="68.17" y="296.732"/><rect fill="#FFE4C4" height="10" style="stroke:#181818;stroke-width:0.5;" width="15" x="159.8357" y="301.732"/><rect fill="#FFE4C4" height="2" style="stroke:#181818;stroke-width:0.5;" width="4" x="157.8357" y="303.732"/><rect fill="#FFE4C4" height="2" style="stroke:#181818;stroke-width:0.5;" width="4" x="157.8357" y="307.732"/><text fill="#000000" font-family="sans-serif" font-size="14" lengthAdjust="spacing" textLength="71.6657" x="83.17" y="331.6979">menu.view</text></g><!--entity explore.view--><g id="elem_explore.view"><rect fill="#FFE4C4" height="49.0679" rx="3.5" ry="3.5" style="stroke:#181818;stroke-width:0.5;" width="123.0477" x="214.48" y="296.732"/><rect fill="#FFE4C4" height="10" style="stroke:#181818;stroke-width:0.5;" width="15" x="317.5277" y="301.732"/><rect fill="#FFE4C4" height="2" style="stroke:#181818;stroke-width:0.5;" width="4" x="315.5277" y="303.732"/><rect fill="#FFE4C4" height="2" style="stroke:#181818;stroke-width:0.5;" width="4" x="315.5277" y="307.732"/><text fill="#000000" font-family="sans-serif" font-size="14" lengthAdjust="spacing" textLength="83.0477" x="229.48" y="331.6979">explore.view</text></g><!--entity combat.view--><g id="elem_combat.view"><rect fill="#FFE4C4" height="49.0679" rx="3.5" ry="3.5" style="stroke:#181818;stroke-width:0.5;" width="123.1737" x="68.41" y="405.802"/><rect fill="#FFE4C4" height="10" style="stroke:#181818;stroke-width:0.5;" width="15" x="171.5837" y="410.802"/><rect fill="#FFE4C4" height="2" style="stroke:#181818;stroke-width:0.5;" width="4" x="169.5837" y="412.802"/><rect fill="#FFE4C4" height="2" style="stroke:#181818;stroke-width:0.5;" width="4" x="169.5837" y="416.802"/><text fill="#000000" font-family="sans-serif" font-size="14" lengthAdjust="spacing" textLength="83.1737" x="83.41" y="440.7679">combat.view</text></g><!--entity game.logic--><g id="elem_game.logic"><rect fill="#F0F8FF" height="49.0679" rx="3.5" ry="3.5" style="stroke:#181818;stroke-width:0.5;" width="112.2257" x="150.89" y="44.602"/><rect fill="#F0F8FF" height="10" style="stroke:#181818;stroke-width:0.5;" width="15" x="243.1157" y="49.602"/><rect fill="#F0F8FF" height="2" style="stroke:#181818;stroke-width:0.5;" width="4" x="241.1157" y="51.602"/><rect fill="#F0F8FF" height="2" style="stroke:#181818;stroke-width:0.5;" width="4" x="241.1157" y="55.602"/><text fill="#000000" font-family="sans-serif" font-size="14" lengthAdjust="spacing" textLength="72.2257" x="165.89" y="79.5679">game.logic</text></g><!--entity load.pack--><g id="elem_load.pack"><rect fill="#F0F8FF" height="49.0679" rx="3.5" ry="3.5" style="stroke:#181818;stroke-width:0.5;" width="102.9578" x="160.52" y="153.672"/><rect fill="#F0F8FF" height="10" style="stroke:#181818;stroke-width:0.5;" width="15" x="243.4778" y="158.672"/><rect fill="#F0F8FF" height="2" style="stroke:#181818;stroke-width:0.5;" width="4" x="241.4778" y="160.672"/><rect fill="#F0F8FF" height="2" style="stroke:#181818;stroke-width:0.5;" width="4" x="241.4778" y="164.672"/><text fill="#000000" font-family="sans-serif" font-size="14" lengthAdjust="spacing" textLength="62.9578" x="175.52" y="188.6379">load.pack</text></g><!--entity save.pack--><g id="elem_save.pack"><rect fill="#F0F8FF" height="49.0679" rx="3.5" ry="3.5" style="stroke:#181818;stroke-width:0.5;" width="103.9798" x="22.01" y="153.672"/><rect fill="#F0F8FF" height="10" style="stroke:#181818;stroke-width:0.5;" width="15" x="105.9898" y="158.672"/><rect fill="#F0F8FF" height="2" style="stroke:#181818;stroke-width:0.5;" width="4" x="103.9898" y="160.672"/><rect fill="#F0F8FF" height="2" style="stroke:#181818;stroke-width:0.5;" width="4" x="103.9898" y="164.672"/><text fill="#000000" font-family="sans-serif" font-size="14" lengthAdjust="spacing" textLength="63.9798" x="37.01" y="188.6379">save.pack</text></g><!--entity inputs.eve--><g id="elem_inputs.eve"><rect fill="#F0F8FF" height="49.0679" rx="3.5" ry="3.5" style="stroke:#181818;stroke-width:0.5;" width="107.9417" x="432.03" y="405.802"/><rect fill="#F0F8FF" height="10" style="stroke:#181818;stroke-width:0.5;" width="15" x="519.9717" y="410.802"/><rect fill="#F0F8FF" height="2" style="stroke:#181818;stroke-width:0.5;" width="4" x="517.9717" y="412.802"/><rect fill="#F0F8FF" height="2" style="stroke:#181818;stroke-width:0.5;" width="4" x="517.9717" y="416.802"/><text fill="#000000" font-family="sans-serif" font-size="14" lengthAdjust="spacing" textLength="67.9417" x="447.03" y="440.7679">inputs.eve</text></g><!--entity notifications.eve--><g id="elem_notifications.eve"><rect fill="#F0F8FF" height="49.0679" rx="3.5" ry="3.5" style="stroke:#181818;stroke-width:0.5;" width="147.9396" x="575.03" y="405.802"/><rect fill="#F0F8FF" height="10" style="stroke:#181818;stroke-width:0.5;" width="15" x="702.9696" y="410.802"/><rect fill="#F0F8FF" height="2" style="stroke:#181818;stroke-width:0.5;" width="4" x="700.9696" y="412.802"/><rect fill="#F0F8FF" height="2" style="stroke:#181818;stroke-width:0.5;" width="4" x="700.9696" y="416.802"/><text fill="#000000" font-family="sans-serif" font-size="14" lengthAdjust="spacing" textLength="107.9396" x="590.03" y="440.7679">notifications.eve</text></g><!--link UI to inputs.eve--><g id="link_UI_inputs.eve"><path d="M384.0993,430.342 C384.1666,430.342 384.2341,430.342 384.302,430.342 C384.4377,430.342 384.5745,430.342 384.7125,430.342 C386.9192,430.342 389.4069,430.342 392.1175,430.342 C402.96,430.342 411.37,430.342 425.64,430.342 " fill="transparent" id="UI-to-inputs.eve" style="stroke:#191919;stroke-width:1;"/><polygon fill="#191919" points="431.64,430.342,422.64,426.342,426.64,430.342,422.64,434.342,431.64,430.342" style="stroke:#191919;stroke-width:1;"/></g><!--link game.logic to notifications.eve--><g id="link_game.logic_notifications.eve"><path d="M263.29,56.872 C387.41,56.872 673.66,56.872 673.66,56.872 C673.66,56.872 673.66,316.132 673.66,399.542 " fill="transparent" id="game.logic-to-notifications.eve" style="stroke:#191919;stroke-width:1;"/><polygon fill="#191919" points="673.66,405.542,677.66,396.542,673.66,400.542,669.66,396.542,673.66,405.542" style="stroke:#191919;stroke-width:1;"/></g><!--reverse link UI to notifications.eve--><g id="link_UI_notifications.eve"><path d="M390.1297,321.272 C390.9581,321.272 387.0391,321.272 387.9471,321.272 C389.763,321.272 391.7348,321.272 393.8496,321.272 C402.3085,321.272 413.0545,321.272 425.2614,321.272 C449.6753,321.272 479.9331,321.272 509.4263,321.272 C568.4125,321.272 624.34,321.272 624.34,321.272 C624.34,321.272 624.34,373.112 624.34,405.312 " fill="transparent" id="UI-backto-notifications.eve" style="stroke:#191919;stroke-width:1;"/><polygon fill="#191919" points="384.1297,321.272,393.1297,325.272,389.1297,321.272,393.1297,317.272,384.1297,321.272" style="stroke:#191919;stroke-width:1;"/></g><!--reverse link game.logic to inputs.eve--><g id="link_game.logic_inputs.eve"><path d="M269.6,69.132 C351.32,69.132 486.67,69.132 486.67,69.132 C486.67,69.132 486.67,323.902 486.67,405.512 " fill="transparent" id="game.logic-backto-inputs.eve" style="stroke:#191919;stroke-width:1;"/><polygon fill="#191919" points="263.6,69.132,272.6,73.132,268.6,69.132,272.6,65.132,263.6,69.132" style="stroke:#191919;stroke-width:1;"/></g><!--link game.State to UI--><g id="link_game.State_UI"><path d="M374,203.122 C374,212.3295 374,223.3614 374,234.9335 C374,237.8266 374,240.7534 374,243.6939 C374,245.1642 374,246.6379 374,248.1125 C374,248.8498 374,268.6552 374,269.3927 " fill="transparent" id="game.State-to-UI" style="stroke:#191919;stroke-width:1;"/><polygon fill="#191919" points="374,275.3927,378,266.3927,374,270.3927,370,266.3927,374,275.3927" style="stroke:#191919;stroke-width:1;"/></g><!--link game.logic to save.pack--><g id="link_game.logic_save.pack"><path d="M155.7,94.152 C155.7,126.362 155.7,178.202 155.7,178.202 C155.7,178.202 148.22,178.202 132.21,178.202 " fill="transparent" id="game.logic-to-save.pack" style="stroke:#191919;stroke-width:1;"/><polygon fill="#191919" points="126.21,178.202,135.21,182.202,131.21,178.202,135.21,174.202,126.21,178.202" style="stroke:#191919;stroke-width:1;"/></g><!--link game.logic to load.pack--><g id="link_game.logic_load.pack"><path d="M211.82,94.152 C211.82,111.892 211.82,129.582 211.82,147.292 " fill="transparent" id="game.logic-to-load.pack" style="stroke:#191919;stroke-width:1;"/><polygon fill="#191919" points="211.82,153.292,215.82,144.292,211.82,148.292,207.82,144.292,211.82,153.292" style="stroke:#191919;stroke-width:1;"/></g><!--link save.pack to game.State--><g id="link_save.pack_game.State"><path d="M97.08,203.222 C97.08,223.852 97.08,249.732 97.08,249.732 C97.08,249.732 328.08,249.732 328.08,249.732 C328.08,249.732 328.08,229.852 328.08,209.222 " fill="transparent" id="save.pack-to-game.State" style="stroke:#191919;stroke-width:1;"/><polygon fill="#191919" points="328.08,203.222,324.08,212.222,328.08,208.222,332.08,212.222,328.08,203.222" style="stroke:#191919;stroke-width:1;"/></g><!--link load.pack to game.State--><g id="link_load.pack_game.State"><path d="M263.89,178.202 C281.16,178.202 294.49,178.202 312.18,178.202 " fill="transparent" id="load.pack-to-game.State" style="stroke:#191919;stroke-width:1;"/><polygon fill="#191919" points="318.18,178.202,309.18,174.202,313.18,178.202,309.18,182.202,318.18,178.202" style="stroke:#191919;stroke-width:1;"/></g><!--link game.logic to game.State--><g id="link_game.logic_game.State"><path d="M263.27,81.402 C312.44,81.402 376,81.402 376,81.402 C376,81.402 376,118.592 376,147.272 " fill="transparent" id="game.logic-to-game.State" style="stroke:#191919;stroke-width:1;"/><polygon fill="#191919" points="376,153.272,380,144.272,376,148.272,372,144.272,376,153.272" style="stroke:#191919;stroke-width:1;"/></g><rect fill="#FFFFFF" height="71.2038" id="_legend" rx="3.5" ry="3.5" style="stroke:#FFFFFF;stroke-width:1;" width="166.5614" x="553.4386" y="496.872"/><text fill="#000000" font-family="sans-serif" font-size="14" lengthAdjust="spacing" textLength="35.1819" x="562.0786" y="518.8379">Color</text><text fill="#000000" font-family="sans-serif" font-size="14" lengthAdjust="spacing" textLength="57.9738" x="600.9004" y="518.8379">Meaning</text><rect fill="#F0F8FF" height="19.0679" style="stroke:transparent;stroke-width:1;" width="38.8219" x="558.4386" y="522.9399"/><text fill="#000000" font-family="sans-serif" font-size="14" lengthAdjust="spacing" textLength="3.64" x="558.4386" y="537.9058">&#160;</text><text fill="#000000" font-family="sans-serif" font-size="14" lengthAdjust="spacing" textLength="93.6597" x="600.9004" y="537.9058">CrossPlatform</text><rect fill="#FFE4C4" height="19.0679" style="stroke:transparent;stroke-width:1;" width="38.8219" x="558.4386" y="542.0078"/><text fill="#000000" font-family="sans-serif" font-size="14" lengthAdjust="spacing" textLength="3.64" x="558.4386" y="556.9738">&#160;</text><text fill="#000000" font-family="sans-serif" font-size="14" lengthAdjust="spacing" textLength="110.4596" x="600.9004" y="556.9738">Platform Specific</text><line style="stroke:#000000;stroke-width:1;" x1="558.4386" x2="715" y1="503.872" y2="503.872"/><line style="stroke:#000000;stroke-width:1;" x1="558.4386" x2="715" y1="522.9399" y2="522.9399"/><line style="stroke:#000000;stroke-width:1;" x1="558.4386" x2="715" y1="542.0078" y2="542.0078"/><line style="stroke:#000000;stroke-width:1;" x1="558.4386" x2="715" y1="561.0757" y2="561.0757"/><line style="stroke:#000000;stroke-width:1;" x1="558.4386" x2="558.4386" y1="503.872" y2="561.0757"/><line style="stroke:#000000;stroke-width:1;" x1="597.2605" x2="597.2605" y1="503.872" y2="561.0757"/><line style="stroke:#000000;stroke-width:1;" x1="715" x2="715" y1="503.872" y2="561.0757"/><!--SRC=[VP51Ri8m44NtFiM0rya94591L4822IbYLNLXai5OE7RgE6cZmjrh1qgSaDRBUJF_ptnFx0bpX9oPafHdeGfcM0vIABHDWQ2DFMb29XaUNGaIcm5zaIB5XQpmKTv92tGXoWzN2rMGeyeMB3rpeokLBRNK1kXh-vxxjCdG_D-pKjOq2VgI3Th8ZO8H_6G9k7U1LkW2MsHAA7wvLMUKkXCedJjkT5dk9BD7RNBekBkbvG-K59YAeqXTZ_EuEH5IkAiOHvXkCTUccGBTU7Dk41Lyjsh-lN6MOvnOPl4TxkRasatlrx-J1nTeE9YZgk9QuAUVQvVg67uLxZZy2wSwFp0xe87fHdEHEj-bDam-BIizxPPzGAbP5dkD4LQo6WSiy5lLg6pf35qwJUZdFhUoPOmrZcWgRNtip0gj1ZrNGlPhYEOz1T9RF_BqMSBFpQ9e5FNcPz6O-FqZlVX-FMBOvJ02km092HFpB50dOTBFi2SxWEJw0m00]--></g></svg>